Coordinates
version=1
nRows=10
nColumns=22
inDegrees=yes

Units are S.I. units (second, meters, Newtons, ...)
If the header above contains a line with 'inDegrees', this indicates whether rotational values are in degrees (yes) or radians (no).

endheader
time	pelvis_tilt	pelvis_list	pelvis_rotation	pelvis_tx	pelvis_ty	pelvis_tz	hip_flexion_r	hip_adduction_r	hip_rotation_r	knee_angle_r	ankle_angle_r	subtalar_angle_r	hip_flexion_l	hip_adduction_l	hip_rotation_l	knee_angle_l	ankle_angle_l	subtalar_angle_l	lumbar_extension	lumbar_bending	lumbar_rotation
      3.78000000	     -2.00650152	      2.39467348	     16.45703005	     -0.09071490	      0.99153331	     -0.67188982	     30.61796704	     -4.50743332	    -24.52465028	    -23.92159745	     10.60491496	      5.09911978	     -8.90481991	      0.51505896	    -14.88851317	     -8.60271351	     15.55154062	      5.77857970	     -6.40879674	     -3.39668493	     -3.79196673
      3.79000000	     -1.93850672	      2.51759460	     16.31348707	     -0.08265219	      0.98993805	     -0.67321409	     30.52674925	     -4.53144917	    -24.82531145	    -21.71980267	     10.49858277	      5.13595762	     -9.57692116	      0.59935403	    -15.14827648	     -8.52935505	     15.74016094	      6.03605532	     -6.55054591	     -3.38473094	     -4.00549120
      3.80000000	     -1.87998478	      2.62690717	     16.18919776	     -0.07447659	      0.98830320	     -0.67447589	     30.42048489	     -4.55441110	    -25.03834609	    -19.61527527	     10.38383950	      5.09090456	    -10.19712175	      0.65137436	    -15.35274036	     -8.54239776	     15.93174877	      6.33169243	     -6.67108288	     -3.35217081	     -4.23943587
      3.81000000	     -1.84400026	      2.71979713	     16.08228568	     -0.06618345	      0.98663158	     -0.67564874	     30.31497829	     -4.57954424	    -25.16672125	    -17.63180270	     10.24872099	      4.93978846	    -10.75237406	      0.66926068	    -15.47825089	     -8.64189249	     16.10440526	      6.65300351	     -6.75828301	     -3.30653771	     -4.47833080
      3.82000000	     -1.82363338	      2.79503466	     15.99473943	     -0.05773700	      0.98496366	     -0.67676606	     30.20448064	     -4.61438142	    -25.23298373	    -15.80747908	     10.08555294	      4.67541737	    -11.25744485	      0.65190692	    -15.51200421	     -8.81615135	     16.24712655	      7.00230629	     -6.81280146	     -3.23866755	     -4.72151367
      3.83000000	     -1.82330675	      2.85439135	     15.92958774	     -0.04909188	      0.98332129	     -0.67785732	     30.10089780	     -4.67515151	    -25.28096763	    -14.19385946	      9.88939635	      4.34249350	    -11.72741830	      0.60545966	    -15.46728622	     -9.02829918	     16.33990389	      7.36013382	     -6.82485972	     -3.14755381	     -4.99853360
      3.84000000	     -1.81732890	      2.90863027	     15.88398979	     -0.04021220	      0.98176369	     -0.67890146	     29.97984141	     -4.76751583	    -25.35143942	    -12.83198243	      9.71644946	      3.92287055	    -12.18119619	      0.52738511	    -15.34209337	     -9.30691303	     16.37670803	      7.79546484	     -6.82498604	     -3.04373205	     -5.27247805
      3.85000000	     -1.81201267	      2.95627978	     15.85271025	     -0.03105858	      0.98030634	     -0.67990960	     29.85862414	     -4.89677086	    -25.48333398	    -11.76954765	      9.55649256	      3.51073011	    -12.63005700	      0.42294047	    -15.15862291	     -9.61444058	     16.34073251	      8.27572894	     -6.80199830	     -2.92465344	     -5.56252743
      3.86000000	     -1.79380152	      3.00031500	     15.83125403	     -0.02159505	      0.97898772	     -0.68087233	     29.72790124	     -5.06230684	    -25.70210982	    -11.04017682	      9.41626368	      3.12924455	    -13.09000269	      0.29155549	    -14.92088472	     -9.95213168	     16.22250830	      8.81495283	     -6.76895589	     -2.78942027	     -5.85298602
      3.87000000	     -1.75646790	      3.03659513	     15.79707569	     -0.01176947	      0.97782944	     -0.68173806	     29.58386962	     -5.24486531	    -26.00998898	    -10.65430662	      9.26768272	      2.75315731	    -13.57562598	      0.13062852	    -14.67145364	    -10.30422061	     16.01874223	      9.46966649	     -6.72490734	     -2.63885242	     -6.12599982
